<?xml version="1.0" encoding="UTF-8" standalone="no"?>
<!-- Generator: Adobe Illustrator 16.0.0, SVG Export Plug-In . SVG Version: 6.00 Build 0)  -->

<svg
   xmlns:dc="http://purl.org/dc/elements/1.1/"
   xmlns:cc="http://creativecommons.org/ns#"
   xmlns:rdf="http://www.w3.org/1999/02/22-rdf-syntax-ns#"
   xmlns:svg="http://www.w3.org/2000/svg"
   xmlns="http://www.w3.org/2000/svg"
   xmlns:sodipodi="http://sodipodi.sourceforge.net/DTD/sodipodi-0.dtd"
   xmlns:inkscape="http://www.inkscape.org/namespaces/inkscape"
   version="1.1"
   id="Capa_1"
   x="0px"
   y="0px"
   width="1020px"
   height="1020px"
   viewBox="0 0 1020 1020"
   enable-background="new 0 0 1020 1020"
   xml:space="preserve"
   sodipodi:docname="dc_logo.svg"
   inkscape:version="0.92.3 (2405546, 2018-03-11)"><metadata
   id="metadata25"><rdf:RDF><cc:Work
       rdf:about=""><dc:format>image/svg+xml</dc:format><dc:type
         rdf:resource="http://purl.org/dc/dcmitype/StillImage" /></cc:Work></rdf:RDF></metadata><defs
   id="defs23" /><sodipodi:namedview
   pagecolor="#ffffff"
   bordercolor="#666666"
   borderopacity="1"
   objecttolerance="10"
   gridtolerance="10"
   guidetolerance="10"
   inkscape:pageopacity="0"
   inkscape:pageshadow="2"
   inkscape:window-width="1920"
   inkscape:window-height="1052"
   id="namedview21"
   showgrid="false"
   inkscape:zoom="0.4627451"
   inkscape:cx="517.64035"
   inkscape:cy="505.63165"
   inkscape:window-x="1366"
   inkscape:window-y="0"
   inkscape:window-maximized="1"
   inkscape:current-layer="Capa_1" />
<g
   id="g18">
	<path
   fill="#679E3A"
   d="M995.206,509.958c0,267.975-217.238,485.209-485.204,485.209c-267.972,0-485.208-217.234-485.208-485.209   c0-267.972,217.236-485.206,485.208-485.206C777.968,24.752,995.206,241.987,995.206,509.958z"
   id="path2" />
	<polygon
   fill="#679E3A"
   points="269.445,467.204 495.623,630.525 509.992,930.08 248.81,847.068 53.147,598.17 53.147,576.399  "
   id="polygon4" />
	<polygon
   fill="#679E3A"
   points="750.545,467.204 524.365,630.525 509.992,930.08 771.184,847.068 966.847,598.17 966.847,576.399     "
   id="polygon6" />
	<g
   id="g10">
		
			<path
   fill="#FFFFFF"
   stroke="#FFFFFF"
   stroke-width="16.0973"
   stroke-linecap="round"
   stroke-linejoin="round"
   stroke-miterlimit="60"
   d="    M856.508,323.387c-147.116,0-346.532-100.921-346.532,290.235c0-391.157-199.853-290.235-346.944-290.235L41.496,576.172    c215.241,0,468.584-179.014,468.584,418.996c0-598.01,253.166-418.996,468.424-418.996L856.508,323.387z"
   id="path8" />
	</g>
	
		<path
   fill="#679E3A"
   stroke="#FFFFFF"
   stroke-width="24.4011"
   stroke-linecap="round"
   stroke-linejoin="round"
   stroke-miterlimit="60"
   d="   M29.314,576.399c18.61,141.189,99.9,239.604,147.042,285.841C223.499,908.479,342.1,995.247,510,995.247l0,0   c0-280.333-261.188-178.175-481.115-418.848"
   id="path12" />
	
		<path
   fill="#679E3A"
   stroke="#FFFFFF"
   stroke-width="24.4011"
   stroke-linecap="round"
   stroke-linejoin="round"
   stroke-miterlimit="60"
   d="   M990.685,576.399c-18.608,141.189-99.9,239.604-147.041,285.841C796.501,908.479,677.898,995.247,510,995.247l0,0   c0-280.333,261.187-178.175,481.114-418.848"
   id="path14" />
	
		<path
   fill="none"
   stroke="#FFFFFF"
   stroke-width="36.6017"
   stroke-linecap="round"
   stroke-linejoin="round"
   stroke-miterlimit="60"
   d="   M995.206,509.958c0,267.975-217.238,485.209-485.204,485.209c-267.972,0-485.208-217.234-485.208-485.209   c0-267.972,217.236-485.206,485.208-485.206C777.968,24.752,995.206,241.987,995.206,509.958z"
   id="path16" />
</g>
<path
   style="fill:#6f79ea;fill-opacity:1;stroke-width:2.16101694"
   d="M 487.39107,852.57813 C 478.22214,838.00894 457.92148,816.9695 441.20364,804.70977 411.00844,782.56663 388.06875,771.29266 303.62288,737.09414 195.1537,693.16675 115.95418,645.96854 67.397767,596.318 l -11.479352,-11.73802 22.677488,-1.38753 c 12.472618,-0.76314 53.619257,-5.92467 91.436977,-11.47005 61.32953,-8.99302 73.07949,-10.10541 108.73831,-10.2944 48.04243,-0.25464 64.69049,2.823 94.70025,17.50672 57.17461,27.9754 93.57515,93.92694 112.47514,203.78562 5.45973,31.73535 9.49638,66.69049 8.56794,74.19348 -0.69617,5.62578 -0.95247,5.46979 -7.12345,-4.33569 z"
   id="path832"
   inkscape:connector-curvature="0" /><path
   style="fill:#6f79ea;fill-opacity:1;stroke-width:2.16101694"
   d="m 525.12712,855.9308 c 0,-9.77964 5.2267,-51.61436 9.68666,-77.5325 14.64389,-85.09975 44.69948,-150.00669 84.34215,-182.14215 16.60575,-13.46108 42.85225,-26.04793 64.80593,-31.07854 13.67218,-3.13293 25.65005,-3.91719 57.26695,-3.74961 35.65881,0.18899 47.40878,1.30138 108.73831,10.2944 37.81771,5.54538 78.96436,10.70691 91.43697,11.47005 l 22.6775,1.38753 -11.47936,11.73802 c -48.72007,49.81788 -127.1145,96.53041 -236.22511,140.75836 -26.14831,10.59921 -57.41973,23.6508 -69.49206,29.00355 -53.34534,23.65276 -89.50302,50.72291 -112.90764,84.53046 l -8.8503,12.78412 z"
   id="path834"
   inkscape:connector-curvature="0" /><path
   style="fill:#c5c9f7;fill-opacity:1;stroke-width:2.16101694"
   d="m 44.616586,527.42536 c -1.655471,-21.38797 1.365041,-68.54709 6.14043,-95.87028 C 82.498118,249.9431 216.29298,104.69891 394.07298,58.860266 435.00932,48.305273 463.08449,44.932173 510,44.932173 c 46.55062,0 74.20874,3.284221 115.22895,13.682692 129.20057,32.751864 238.62705,120.446815 299.6514,240.142205 22.09967,43.34706 36.15308,85.45804 44.31782,132.79801 4.66857,27.06886 7.80686,79.01104 5.91857,97.95845 l -1.5786,15.83978 -54.90682,-113.73234 C 888.06064,368.2978 862.02303,316.97801 859.88567,315.83414 c -2.11135,-1.12997 -9.7384,-2.05448 -16.949,-2.05448 -7.2106,0 -32.80154,-2.14587 -56.86876,-4.76859 -29.78042,-3.24532 -57.21967,-4.77446 -85.89842,-4.78697 -37.22522,-0.0173 -44.28209,0.56072 -60.50847,4.94695 -63.0078,17.03193 -101.63112,62.05114 -122.07053,142.28503 -2.96453,11.63708 -5.39892,23.34636 -5.40976,26.02061 -0.0109,2.67426 -0.99217,4.86229 -2.18073,4.86229 -1.18856,0 -2.16722,-2.18803 -2.1748,-4.86229 -0.009,-2.67425 -2.82687,-15.55932 -6.26514,-28.63349 -17.07862,-64.94256 -46.43556,-106.68707 -89.584,-127.38525 -40.1963,-19.28204 -78.71295,-22.3315 -167.69739,-13.27699 -30.2622,3.07928 -61.47324,5.5987 -69.35787,5.5987 -10.9474,0 -15.1205,0.89384 -17.65619,3.78178 -1.82628,2.07998 -26.87264,52.89089 -55.65859,112.91314 -28.785936,60.02224 -53.069865,110.45731 -53.964283,112.0779 -0.89931,1.62947 -2.251527,-5.13222 -3.025151,-15.12712 z"
   id="path836"
   inkscape:connector-curvature="0" /><path
   style="fill:#6f79ea;fill-opacity:1;stroke-width:2.16101694"
   d="m 523.79492,968.36293 c 0.63277,-4.04728 1.76765,-13.11095 2.52195,-20.1415 3.64013,-33.92818 18.44464,-70.31519 38.4065,-94.3967 25.2121,-30.41529 66.51812,-54.26429 157.05629,-90.68013 104.51486,-42.0375 162.99466,-74.2978 218.80297,-120.7024 11.58845,-9.63579 21.06991,-16.98236 21.06991,-16.32571 0,0.65665 -4.44268,14.52397 -9.87262,30.81626 -59.28072,177.86906 -222.9072,305.27392 -407.60984,317.37821 l -21.52566,1.41065 z"
   id="path838"
   inkscape:connector-curvature="0" /><path
   style="fill:#6f79ea;fill-opacity:1;stroke-width:2.16101694;stroke:none"
   d="M 447.33051,971.57956 C 309.54565,953.20026 184.84031,871.1133 111.1562,750.2937 94.044242,722.23527 79.358625,690.19985 67.938723,656.01844 62.663527,640.22902 58.347457,626.7581 58.347457,626.08305 c 0,-0.67504 6.077861,3.91487 13.506356,10.1998 61.582177,52.10204 114.118347,81.34955 232.828697,129.6185 88.82437,36.11698 125.30625,57.41668 150.59412,87.92338 19.9071,24.01547 34.68551,60.59101 38.50366,95.29391 0.71925,6.53708 1.78961,15.04608 2.37859,18.9089 l 1.07087,7.02331 -13.60429,-0.22226 c -7.48235,-0.12225 -23.81508,-1.58431 -36.29495,-3.24903 z"
   id="path840"
   inkscape:connector-curvature="0" /><path
   style="fill:#6f79ea;fill-opacity:1;stroke:none;stroke-width:1.52806973"
   d=""
   id="path842"
   inkscape:connector-curvature="0" /></svg>
