<?xml version="1.0" standalone="no"?>
<!DOCTYPE svg PUBLIC "-//W3C//DTD SVG 20010904//EN"
 "http://www.w3.org/TR/2001/REC-SVG-20010904/DTD/svg10.dtd">
<svg version="1.0" xmlns="http://www.w3.org/2000/svg"
 width="700.000000pt" height="700.000000pt" viewBox="0 0 700.000000 700.000000"
 preserveAspectRatio="xMidYMid meet">
<metadata>
Created by potrace 1.11, written by Peter Selinger 2001-2013
</metadata>
<g transform="translate(0.000000,700.000000) scale(0.100000,-0.100000)"
fill="#000000" stroke="none">
<path d="M3230 6689 c-396 -34 -805 -150 -1154 -325 -323 -163 -584 -351 -837
-603 -508 -509 -816 -1138 -915 -1871 -18 -136 -29 -500 -17 -584 l8 -59 374
779 c205 428 381 786 391 795 13 12 62 18 203 27 102 7 293 24 424 38 307 34
656 39 803 11 355 -66 588 -232 764 -544 86 -153 170 -402 207 -610 7 -40 15
-73 19 -73 4 0 13 35 20 77 18 112 74 309 121 426 182 455 482 687 954 738
150 16 386 6 745 -30 162 -16 354 -33 427 -37 117 -6 134 -9 152 -28 10 -11
187 -369 393 -795 l373 -774 8 59 c20 144 -5 547 -49 784 -224 1219 -1167
2218 -2374 2515 -337 82 -709 113 -1040 84z"/>
<path d="M1740 3154 c-19 -2 -98 -11 -175 -20 -77 -8 -273 -35 -435 -59 -263
-39 -423 -58 -684 -83 l-80 -7 135 -122 c310 -282 616 -487 1014 -679 193 -93
316 -145 705 -304 669 -272 917 -436 1122 -740 l70 -105 -6 75 c-99 1139 -408
1779 -954 1974 -144 51 -250 67 -472 71 -113 2 -221 1 -240 -1z"/>
<path d="M4860 3154 c-97 -13 -214 -38 -295 -65 -555 -185 -865 -817 -970
-1979 l-7 -75 70 105 c204 304 452 468 1122 740 389 159 512 211 705 304 398
192 704 397 1014 679 l135 122 -80 7 c-260 25 -418 44 -653 79 -457 68 -573
80 -796 84 -115 2 -226 1 -245 -1z"/>
<path d="M390 2727 c0 -24 84 -284 126 -391 456 -1161 1549 -1959 2778 -2032
l119 -7 -7 89 c-30 390 -172 695 -416 898 -192 160 -365 250 -880 459 -825
335 -1170 526 -1597 885 -68 56 -123 101 -123 99z"/>
<path d="M6560 2688 c-118 -104 -310 -250 -450 -344 -320 -212 -593 -347
-1220 -601 -515 -209 -688 -299 -880 -459 -244 -203 -386 -508 -416 -898 l-7
-89 119 7 c806 48 1589 420 2144 1021 275 297 486 633 634 1011 48 120 131
383 123 390 -1 1 -22 -16 -47 -38z"/>
</g>
</svg>
